<?xml version="1.0" encoding="UTF-8" standalone="no"?>
<!-- Created with Inkscape (http://www.inkscape.org/) -->

<svg
   width="210mm"
   height="297mm"
   viewBox="0 0 210 297"
   version="1.1"
   id="svg5"
   inkscape:version="1.2 (dc2aedaf03, 2022-05-15)"
   sodipodi:docname="scroll-side.svg"
   xmlns:inkscape="http://www.inkscape.org/namespaces/inkscape"
   xmlns:sodipodi="http://sodipodi.sourceforge.net/DTD/sodipodi-0.dtd"
   xmlns="http://www.w3.org/2000/svg"
   xmlns:svg="http://www.w3.org/2000/svg">
  <sodipodi:namedview
     id="namedview7"
     pagecolor="#ffffff"
     bordercolor="#000000"
     borderopacity="0.25"
     inkscape:showpageshadow="false"
     inkscape:pageopacity="0.0"
     inkscape:pagecheckerboard="0"
     inkscape:deskcolor="#d1d1d1"
     inkscape:document-units="mm"
     showgrid="false"
     showborder="false"
     inkscape:lockguides="false"
     inkscape:zoom="2.9540684"
     inkscape:cx="45.36117"
     inkscape:cy="73.796531"
     inkscape:window-width="1920"
     inkscape:window-height="1009"
     inkscape:window-x="-8"
     inkscape:window-y="-8"
     inkscape:window-maximized="1"
     inkscape:current-layer="layer1" />
  <defs
     id="defs2" />
  <g
     inkscape:label="Layer 1"
     inkscape:groupmode="layer"
     id="layer1">
    <path
       id="rect115"
       style="fill:#ffffff;stroke:#000000;stroke-width:0.499999"
       d="m 0,0 h 3.2630933 v 2.1495778 c 0.0092,0.2212841 -1.581023,0.376198 -1.698095,1.6081002 1.188782,0.379095 1.778898,-0.3692202 1.803371,-0.081943 0.219476,2.5763438 0.6274,6.1403447 0.155686,9.723994 -0.901555,-0.05239 -1.065229,0.506046 -1.065229,0.506046 -0.128876,1.180339 -0.246763,1.396941 0.518291,4.546576 -0.572917,0.813236 -1.595917,-0.06808 -0.300087,1.628103 0.387352,0.507024 0.181505,1.747862 0.0066,4.011075 -1.053264,0.382666 -1.322982,1.044419 -1.012862,2.58145 0.04911,0.243402 -0.659683,0.552613 -0.607256,0.799778 0,0 0.879443,0.494105 0.940284,0.773565 0.05685,0.261108 -0.337325,0.625527 -0.525301,0.813509 0.05562,0.253275 0.807449,0.47353 0.861141,0.722803 0.369277,1.714445 0.668505,3.303658 0.561298,4.346822 -0.369734,3.597641 0.155547,6.346092 -0.150106,8.217204 -0.06893,0.42196 -1.016936,-0.02596 -1.066957,0.3762 3.950254,6.842041 1.579272,-0.412282 1.579272,8.150482 v 2.043327 H 0 Z"
       sodipodi:nodetypes="ccccscccscscscsssccccc"
       inkscape:export-filename="rect115.png"
       inkscape:export-xdpi="96"
       inkscape:export-ydpi="96" />
    <path
       id="path397"
       style="fill:#e9c6af;stroke:none;stroke-width:0.499999"
       d="M 41.021269 0 L 41.021269 52.916667 L 41.021269 105.83333 L 41.021269 158.75 L 41.021269 211.66667 L 54.250435 211.66667 L 54.250435 209.62338 C 54.250435 201.06062 56.621454 208.31501 52.671204 201.47297 C 52.721225 201.07077 53.668875 201.51873 53.737805 201.09677 C 54.043458 199.22565 53.51845 196.47734 53.888184 192.8797 C 53.99539 191.83654 53.696254 190.24712 53.326978 188.53268 C 53.273286 188.28341 52.521151 188.06299 52.465531 187.80972 C 52.653507 187.62174 53.047931 187.25745 52.991081 186.99634 C 52.93024 186.71688 52.05057 186.22274 52.05057 186.22274 C 51.998143 185.97558 52.706878 185.66672 52.657768 185.42331 C 52.347648 183.88628 52.617363 183.22422 53.670626 182.84155 C 53.845531 180.57834 54.051776 179.33745 53.664425 178.83043 C 52.368596 177.13423 53.391232 178.01585 53.964148 177.20262 C 53.199095 174.05298 53.316957 173.83647 53.445833 172.65613 C 53.445833 172.65613 53.609847 172.0973 54.511401 172.1497 C 54.983115 168.56605 54.574814 165.00208 54.355339 162.42574 C 54.330866 162.13842 53.741129 162.88701 52.552348 162.50791 C 52.66942 161.27601 54.259635 161.12103 54.250435 160.89974 L 54.250435 158.75 L 54.250435 156.70671 C 54.250435 148.14395 56.621454 155.39834 52.671204 148.55631 C 52.721225 148.15411 53.668875 148.60206 53.737805 148.1801 C 54.043458 146.30898 53.51845 143.56067 53.888184 139.96303 C 53.99539 138.91987 53.696254 137.33045 53.326978 135.61601 C 53.273286 135.36674 52.521151 135.14633 52.465531 134.89306 C 52.653507 134.70507 53.047931 134.34078 52.991081 134.07967 C 52.93024 133.80021 52.05057 133.30608 52.05057 133.30608 C 51.998143 133.05892 52.706878 132.74953 52.657768 132.50612 C 52.347648 130.9691 52.617363 130.30756 53.670626 129.92489 C 53.845531 127.66168 54.051776 126.42078 53.664425 125.91376 C 52.368596 124.21756 53.391232 125.09918 53.964148 124.28595 C 53.199095 121.13632 53.316957 120.91928 53.445833 119.73894 C 53.445833 119.73894 53.609847 119.18063 54.511401 119.23303 C 54.983115 115.64939 54.574814 112.08542 54.355339 109.50908 C 54.330866 109.22176 53.741129 109.97034 52.552348 109.59124 C 52.66942 108.35934 54.259635 108.20436 54.250435 107.98307 L 54.250435 105.83333 L 54.250435 103.79005 C 54.250435 95.227293 56.621454 102.48167 52.671204 95.63964 C 52.721225 95.237481 53.668875 95.685395 53.737805 95.263436 C 54.043458 93.392326 53.51845 90.644004 53.888184 87.046366 C 53.99539 86.003203 53.696254 84.413788 53.326978 82.699345 C 53.273286 82.450072 52.521151 82.229666 52.465531 81.976392 C 52.653507 81.78841 53.047931 81.424112 52.991081 81.163005 C 52.93024 80.883545 52.05057 80.389408 52.05057 80.389408 C 51.998143 80.142244 52.706878 79.832859 52.657768 79.589457 C 52.347648 78.052428 52.617363 77.390885 53.670626 77.008219 C 53.845531 74.745009 54.051776 73.504118 53.664425 72.997095 C 52.368596 71.300913 53.391232 72.182006 53.964148 71.36877 C 53.199095 68.219138 53.316957 68.002616 53.445833 66.822278 C 53.445833 66.822278 53.609847 66.263976 54.511401 66.316366 C 54.983115 62.73272 54.574814 59.168753 54.355339 56.592411 C 54.330866 56.305132 53.741129 57.053671 52.552348 56.674577 C 52.66942 55.442676 54.259635 55.28769 54.250435 55.066406 L 54.250435 52.916667 L 54.250435 50.873381 C 54.250435 42.310625 56.621454 49.565008 52.671204 42.722974 C 52.721225 42.320814 53.668875 42.768729 53.737805 42.346769 C 54.043458 40.475659 53.51845 37.727337 53.888184 34.1297 C 53.99539 33.086537 53.696254 31.497122 53.326978 29.782678 C 53.273286 29.533405 52.521151 29.313 52.465531 29.059725 C 52.653507 28.871743 53.047931 28.507446 52.991081 28.246338 C 52.93024 27.966878 52.05057 27.472742 52.05057 27.472742 C 51.998143 27.225577 52.706878 26.916192 52.657768 26.672791 C 52.347648 25.135761 52.617363 24.474218 53.670626 24.091553 C 53.845531 21.828342 54.051776 20.587452 53.664425 20.080428 C 52.368596 18.384247 53.391232 19.265339 53.964148 18.452104 C 53.199095 15.302472 53.316957 15.085949 53.445833 13.905611 C 53.445833 13.905611 53.609847 13.347309 54.511401 13.399699 C 54.983115 9.8160532 54.574814 6.2520859 54.355339 3.6757446 C 54.330866 3.3884677 53.741129 4.1370048 52.552348 3.7579102 C 52.66942 2.5260092 54.259635 2.3710235 54.250435 2.1497396 L 54.250435 0 L 41.021269 0 z " />
  </g>
</svg>
